<?xml version="1.0" encoding="utf-8"?>
<!-- Generator: Adobe Illustrator 25.0.1, SVG Export Plug-In . SVG Version: 6.00 Build 0)  -->
<svg version="1.1" xmlns="http://www.w3.org/2000/svg" xmlns:xlink="http://www.w3.org/1999/xlink" x="0px" y="0px"
	 viewBox="0 0 367 162.1" style="enable-background:new 0 0 367 162.1;" xml:space="preserve">
<style type="text/css">
	.st0{fill:#594A42;}
	.st1{fill:#4EAE06;}
</style>
<g id="Typography">
	<g>
		<path class="st0" d="M338.2,161.7c16.4,0,28.8-9,28.8-26.2c0-17.1-9.6-22.2-17.1-26c-4.8-2.7-9-4.8-9-10c0-4.3,3.5-7.2,10.4-7.2
			c3.3,0,8.7,0.6,12.6,3v-15c-4.1-1.2-9.2-2-18.3-2c-19.9,0-29.7,10.2-29.7,24.9c0,17.4,9.6,21.6,17.1,25.5c5,2.4,9,5.1,9,10.3
			c0,6.6-4,8.7-12,8.7c-4.5,0-8.1-0.6-12.1-3v14.4C321.9,160.5,326.8,161.7,338.2,161.7 M284.5,92.2c5.1,0,5.1,3.8,4.8,20.4h-10.5
			C279,96,279.9,92.2,284.5,92.2 M284.4,78.3c-21.4,0-31.2,7.7-31.2,41.4c0,34.5,10.2,42.1,36,42.1c11.2,0,16.6-1.3,20.9-2.7v-14.2
			c-4.2,1.9-10.4,3-15.2,3c-11.4,0-15.4-3.3-16-23.2h33.5c0.1-3,0.1-6.9,0.1-11.2C312.9,85.9,306,78.3,284.4,78.3 M232,78.3
			c-8.9,0-17.2,4.3-21.6,13.2l-1.6-11.7h-22.5v80.5h25.1v-51.8c0.1-7,3-13.2,7.5-13.2c2.8,0,3.8,2.5,3.8,11.2v53.7h25v-59.5
			C247.6,84.7,243.7,78.3,232,78.3 M179.1,78.3c-9,0-15.8,7.2-19.4,16.2l-2.1-14.7h-22.5v80.5h25v-43.5c0-11.5,7.7-16.3,15.8-16.3
			c2.6,0,4.4,0.3,6.2,0.8V78.4C181.2,78.3,180.1,78.3,179.1,78.3 M97.2,146.4c-2.7,0-3.9-1.8-3.9-10.4c0-9.4,1.7-18.3,9.8-18.4v14.7
			C103,140.8,101.2,146.4,97.2,146.4 M97.5,78.3c-9.5,0-17.7,1.2-25.1,3v16.1c6.3-2.8,13.5-5.1,20.6-5.1c9.3,0,10,3,10,8.5v7.8h-3.3
			c-17.6,0-31.7,7.2-31.7,30c0,19.1,5.5,23.6,16.8,23.6c10.5,0,16.3-6.9,19.2-13.2l1.7,11.4h22.3v-55.8
			C128.1,85.6,122.1,78.3,97.5,78.3 M30.2,145h-4v-33.1h4c7.8,0,8.5,5.1,8.5,16.6C38.7,139.9,38,145,30.2,145 M30,72.6
			c7.5,0,8.2,4,8.2,12.8c0,7.2-0.8,13.5-8.2,13.5h-3.9V72.6H30z M48.2,104.1c11.2-2.7,14.7-9.7,14.7-21.9c0-17.1-7.6-24.9-32.8-24.9
			H0v103h30.2c26.5,0,35.4-7.8,35.4-29.7C65.5,113.4,61.2,106.2,48.2,104.1"/>
	</g>
</g>
<g id="Symbol">
	<path class="st1" d="M264.3,68.3c7,3.1,35.2,15.7,59.6-20c-17.4-15.3-60.6-28.7-67,11c4.9-5.1,19.6-19.1,42.9-10.7
		c-17.4,0.4-25.8,1.5-38.8,15.8c-13,14.4-11.5,17.3-11.4,17.4c2.3,1.6,5.9,3.3,5.9,3.3C258,78.5,264.3,68.3,264.3,68.3z"/>
	<path class="st1" d="M237,57.3c-5.8,5.1-28.7,25.8-62.8-0.6C186,36.8,223,10.8,241.2,46.5c-6.2-3.3-24.5-12.1-44.1,3
		c16.7-5,25-6.6,41.8,3.1s16.5,12.6,16.6,12.6c-1.7,2.2-4.9,5.5-4.9,5.5C246.5,65.7,237,57.3,237,57.3z"/>
	<path class="st1" d="M252.5,46.9C261.4,41,276,30.1,263.3,0c-26.7,15.4-30.7,36.3-15.6,48.4c0.1-6.4-0.8-20.7,8.3-30.6
		C254.2,23.5,249.8,41.6,252.5,46.9z"/>
</g>
</svg>
